<?xml version="1.0" standalone="no"?>
<!DOCTYPE svg PUBLIC "-//W3C//DTD SVG 20010904//EN"
 "http://www.w3.org/TR/2001/REC-SVG-20010904/DTD/svg10.dtd">
<svg version="1.0" xmlns="http://www.w3.org/2000/svg"
 width="24.000000pt" height="24.000000pt" viewBox="0 0 24.000000 24.000000"
 preserveAspectRatio="xMidYMid meet">

<g transform="translate(0.000000,24.000000) scale(0.100000,-0.100000)"
fill="#000000" stroke="none">
<path d="M80 215 c0 -9 -9 -15 -25 -15 -14 0 -25 -4 -25 -10 0 -6 37 -10 90
-10 53 0 90 4 90 10 0 6 -11 10 -25 10 -16 0 -25 6 -25 15 0 11 -11 15 -40 15
-29 0 -40 -4 -40 -15z m53 -12 c-7 -2 -19 -2 -25 0 -7 3 -2 5 12 5 14 0 19 -2
13 -5z"/>
<path d="M40 102 c0 -40 5 -73 12 -80 16 -16 120 -16 136 0 14 14 17 148 2
148 -5 0 -10 -30 -12 -67 l-3 -68 -55 0 -55 0 -3 68 c-4 88 -22 87 -22 -1z"/>
<path d="M90 105 c0 -25 5 -45 10 -45 6 0 10 20 10 45 0 25 -4 45 -10 45 -5 0
-10 -20 -10 -45z"/>
<path d="M130 105 c0 -25 5 -45 10 -45 6 0 10 20 10 45 0 25 -4 45 -10 45 -5
0 -10 -20 -10 -45z"/>
</g>
</svg>
